<svg width="800" height="400" viewBox="0 0 800 400" fill="none" xmlns="http://www.w3.org/2000/svg">
  <defs>
    <linearGradient id="bg" x1="0%" y1="0%" x2="100%" y2="100%">
      <stop offset="0%" style="stop-color:#8b5cf6"/>
      <stop offset="100%" style="stop-color:#a855f7"/>
    </linearGradient>
    <linearGradient id="shine" x1="0%" y1="0%" x2="100%" y2="100%">
      <stop offset="0%" style="stop-color:rgba(255,255,255,0.15)"/>
      <stop offset="100%" style="stop-color:rgba(255,255,255,0)"/>
    </linearGradient>
  </defs>
  <rect width="800" height="400" fill="url(#bg)"/>
  <rect width="800" height="400" fill="url(#shine)"/>

  <!-- Shield Pattern -->
  <g opacity="0.1">
    <path d="M80 40 L80 75 Q80 100 105 108 Q130 100 130 75 L130 40 Z" fill="white"/>
    <path d="M670 40 L670 75 Q670 100 695 108 Q720 100 720 75 L720 40 Z" fill="white"/>
  </g>

  <!-- Center Icon -->
  <g transform="translate(400, 120)">
    <rect x="-50" y="-50" width="100" height="100" rx="20" fill="rgba(0,0,0,0.3)"/>
    <!-- Shield/Armor icon -->
    <path d="M0 -35 L-28 -20 L-28 8 Q-28 32 0 42 Q28 32 28 8 L28 -20 Z" fill="white" opacity="0.9"/>
    <path d="M0 -25 L-18 -13 L-18 5 Q-18 22 0 30 Q18 22 18 5 L18 -13 Z" fill="rgba(139,92,246,0.6)"/>
  </g>

  <!-- Text -->
  <text x="400" y="220" text-anchor="middle" fill="white" font-family="system-ui, -apple-system, sans-serif" font-size="28" font-weight="700">FiveM MaxArmor</text>
  <text x="400" y="250" text-anchor="middle" fill="rgba(255,255,255,0.7)" font-family="system-ui, -apple-system, sans-serif" font-size="16">Lua • QBCore Framework</text>
</svg>